# xmcd CD database file
#
# Track frame offsets:
#	150
#	5440
#	31210
#	64770
#	107635
#	135100
#	156975
#	190510
#	225060
#	241880
#	267150
#	289635
#
# Disc length: 4502 seconds
#
# Revision: 0
# Processed by: cddbd v1.5.2PL0 Copyright (c) Steve Scherf et al.
# Submitted via: CDex 1.51
#
DISCID=8811940c
DTITLE=Sea Of Dreams - Dawn Of Time
DYEAR=1996
DGENRE=Progressive Metal
TTITLE0=Enter The Sea Of Dreams
TTITLE1=First Step
TTITLE2=Pain
TTITLE3=Dimension Of Time
TTITLE4=Point Of No Return
TTITLE5=Preach Of Fire
TTITLE6=Under The Rainbow
TTITLE7=Legends
TTITLE8=Wait For The Day
TTITLE9=Black Roses
TTITLE10=Sheila
TTITLE11=Dawn of Time
EXTD=YEAR: 1996
EXTT0=
EXTT1=
EXTT2=
EXTT3=
EXTT4=
EXTT5=
EXTT6=
EXTT7=
EXTT8=
EXTT9=
EXTT10=
EXTT11=
PLAYORDER=
